<?xml version="1.0" encoding="UTF-8"?>
<svg id="Calque_1" data-name="Calque 1" xmlns="http://www.w3.org/2000/svg" viewBox="0 0 513.1 211.5">
  <defs>
    <style>
      .cls-1 {
        stroke-width: 0px;
      }
    </style>
  </defs>
  <path class="cls-1" d="m356.19,0h76.51c45.6,0,68.4,33.6,68.4,66.9,0,29.7-18.3,57.9-54.3,64.2l66.3,78.9h-39.3l-76.5-92.1v-14.4h35.4c25.5,0,38.1-18.3,38.1-36.6s-12.6-36.3-38.1-36.3h-46.5v179.4h-30.01V30.68l-127.51.32c-41.1,0-72.88,30.2-72.88,74.3s31.8,77.1,72.9,77.1,57.98-14.4,72-48.6h-77.7v-30.3h113.1c-1.5,17.7-2.72,28.6-5.42,35.5l-.28.5c-17.72,46.5-58.72,72-101.7,72s-81.48-25.94-96.2-65.77l-26,64.87h-22.2L0,.3h33l62.4,156.9,37.05-92.26C148.13,25.88,185.96.26,228.05.19l128.14-.19Z"/>
</svg>